<svg id="visual" viewBox="0 0 900 600" width="900" height="600" xmlns="http://www.w3.org/2000/svg" xmlns:xlink="http://www.w3.org/1999/xlink" version="1.1"><rect width="900" height="600" fill="#FFEACD"></rect><g><g transform="translate(555 537)"><path d="M0 -54.2L54.2 0L0 54.2L-54.2 0Z" fill="#ABFF7D"></path></g><g transform="translate(410 385)"><path d="M0 -33L33 0L0 33L-33 0Z" fill="#ABFF7D"></path></g><g transform="translate(233 136)"><path d="M0 -50L50 0L0 50L-50 0Z" fill="#ABFF7D"></path></g><g transform="translate(333 571)"><path d="M0 -32L32 0L0 32L-32 0Z" fill="#ABFF7D"></path></g><g transform="translate(697 243)"><path d="M0 -40L40 0L0 40L-40 0Z" fill="#ABFF7D"></path></g><g transform="translate(564 81)"><path d="M0 -35L35 0L0 35L-35 0Z" fill="#ABFF7D"></path></g></g></svg>